PathFileType	4	(X/Y/Z)	Kaydara	
DataRate	CameraRate	NumFrames	NumMarkers	Units	OrigDataRate	OrigDataStartFrame	OrigNumFrames	
120.00	120.00	4	72	mm	120.00	131	261	
Frame#	Time	Hips			RightUpLeg			RightLeg			RightFoot			RightFoot_End			LeftUpLeg			LeftLeg			LeftFoot			LeftFoot_End			Spine			Spine1			Spine2			Spine3			Neck			Head			Head_End			RightShoulder			RightArm			RightForeArm			RightHand			RightHandThumb1			RightHandThumb2			RightHandThumb3			RightHandThumb3_End			RightInHandIndex			RightHandIndex1			RightHandIndex2			RightHandIndex3			RightHandIndex3_End			RightInHandMiddle			RightHandMiddle1			RightHandMiddle2			RightHandMiddle3			RightHandMiddle3_End			RightInHandRing			RightHandRing1			RightHandRing2			RightHandRing3			RightHandRing3_End			RightInHandPinky			RightHandPinky1			RightHandPinky2			RightHandPinky3			RightHandPinky3_End			LeftShoulder			LeftArm			LeftForeArm			LeftHand			LeftHandThumb1			LeftHandThumb2			LeftHandThumb3			LeftHandThumb3_End			LeftInHandIndex			LeftHandIndex1			LeftHandIndex2			LeftHandIndex3			LeftHandIndex3_End			LeftInHandMiddle			LeftHandMiddle1			LeftHandMiddle2			LeftHandMiddle3			LeftHandMiddle3_End			LeftInHandRing			LeftHandRing1			LeftHandRing2			LeftHandRing3			LeftHandRing3_End			LeftInHandPinky			LeftHandPinky1			LeftHandPinky2			LeftHandPinky3			LeftHandPinky3_End			
		X1	Y1	Z1	X2	Y2	Z2	X3	Y3	Z3	X4	Y4	Z4	X5	Y5	Z5	X6	Y6	Z6	X7	Y7	Z7	X8	Y8	Z8	X9	Y9	Z9	X10	Y10	Z10	X11	Y11	Z11	X12	Y12	Z12	X13	Y13	Z13	X14	Y14	Z14	X15	Y15	Z15	X16	Y16	Z16	X17	Y17	Z17	X18	Y18	Z18	X19	Y19	Z19	X20	Y20	Z20	X21	Y21	Z21	X22	Y22	Z22	X23	Y23	Z23	X24	Y24	Z24	X25	Y25	Z25	X26	Y26	Z26	X27	Y27	Z27	X28	Y28	Z28	X29	Y29	Z29	X30	Y30	Z30	X31	Y31	Z31	X32	Y32	Z32	X33	Y33	Z33	X34	Y34	Z34	X35	Y35	Z35	X36	Y36	Z36	X37	Y37	Z37	X38	Y38	Z38	X39	Y39	Z39	X40	Y40	Z40	X41	Y41	Z41	X42	Y42	Z42	X43	Y43	Z43	X44	Y44	Z44	X45	Y45	Z45	X46	Y46	Z46	X47	Y47	Z47	X48	Y48	Z48	X49	Y49	Z49	X50	Y50	Z50	X51	Y51	Z51	X52	Y52	Z52	X53	Y53	Z53	X54	Y54	Z54	X55	Y55	Z55	X56	Y56	Z56	X57	Y57	Z57	X58	Y58	Z58	X59	Y59	Z59	X60	Y60	Z60	X61	Y61	Z61	X62	Y62	Z62	X63	Y63	Z63	X64	Y64	Z64	X65	Y65	Z65	X66	Y66	Z66	X67	Y67	Z67	X68	Y68	Z68	X69	Y69	Z69	X70	Y70	Z70	X71	Y71	Z71	X72	Y72	Z72	

131	1.083	5081.203	893.81699	129.612	5154.106652828177	892.968327285221	92.94116051130312	5047.9823658297355	490.52157121488415	49.732772399182984	5060.072019398832	114.54675166849592	10.74253376508672	4956.640107184736	39.65314911988118	151.09023016981277	5019.664780421849	868.2930957866746	180.33168582199534	4912.225413861459	479.4011787548452	292.12379191547836	4789.854968053693	87.28921737154587	448.4457581799874	4643.473345330018	38.62329042043497	336.88882987395004	5028.598215944163	1015.0877133884773	75.97666449899323	4974.710802070728	1078.7132551233858	26.38185623034656	4914.805144797442	1139.3319281110203	-27.977776797739534	4852.79263978396	1188.3157071295414	-84.43656061883252	4784.7659031542435	1241.7032385250304	-141.85174875791245	4713.724743390081	1283.998057943679	-186.29745475042228	4575.022418404574	1361.7293125514723	-197.5321979269911	4826.344167456643	1235.395142587119	-135.27246547035617	4898.407108976403	1277.1434309928613	-187.54450979174965	5013.417127379433	1099.241583120073	-252.99603248134738	5172.910325288088	1029.396383272162	-338.47570161564204	5185.326841270302	1050.9282597664435	-354.04662304400796	5189.608334788269	1056.2058905016763	-379.76321275609746	5193.703603131668	1056.0095005350895	-397.4454333896448	5198.070346566625	1052.5336132976827	-411.99229939877597	5191.918965387037	1039.6936545465915	-353.8251247336096	5218.773181542175	1038.1726665243375	-380.0678997597296	5229.658004927412	1033.5407343281909	-402.8013529805268	5229.15102621161	1031.9714660166776	-417.5373237985764	5223.824811846457	1031.5564923315371	-430.1407532884532	5193.64231390355	1029.0462514697622	-352.50733504412943	5220.769497888203	1021.804563889047	-377.389681962894	5232.7775456832505	1015.3457673345312	-401.9429844941252	5232.228514171593	1012.7785645888604	-419.5997845365445	5226.431109197412	1011.9968832640211	-433.3310993753744	5194.266442770139	1021.573348589152	-350.86498133266866	5219.388346026725	1008.6275532362052	-371.6169693198643	5229.944263263969	1001.5738674771083	-392.7199473921519	5229.462274823906	998.3412791700193	-409.59320238598855	5224.033795757102	997.2478999177926	-422.4291610582379	5193.484178695271	1012.9204105926516	-348.539983107472	5216.360469831224	995.7474189935928	-366.0089113794909	5224.842900195691	987.9335876532324	-382.3526501687958	5224.505675973818	984.5281993327408	-394.39172138004676	5219.705179645772	982.9567818419706	-405.60785539018514	4788.325121656622	1211.2241413333102	-110.72436184355767	4733.597938563771	1132.9458169600514	-78.51240338396768	4920.021924388083	1065.2214574240734	-164.5732773620175	5103.333376023789	1030.158850612572	-246.2124229396881	5116.813836192894	1054.3049836011264	-254.43386714201128	5141.1441481000375	1062.7331074443355	-245.90264462942272	5159.774837385229	1064.8584561567034	-239.6191310380808	5176.7496682857345	1063.4273701942275	-234.08794678994366	5123.838316120009	1043.806791398401	-255.70546827301848	5162.559565813679	1047.7128993382414	-261.3872956414218	5190.894400731124	1046.6511069073583	-256.0223695225017	5204.893504456186	1046.662830796971	-247.409824348757	5214.04101302883	1047.125711961684	-236.7216089485459	5127.145112364755	1033.3080859814525	-254.13356923955433	5166.700909362828	1031.4403098562327	-258.8278706949085	5197.932309368223	1028.8790100534939	-252.73619090629475	5214.971642560914	1028.220057733225	-242.2314975536308	5225.05355739425	1028.3993123045834	-230.481243669109	5128.497895040583	1025.8057588284792	-252.97154642539996	5165.135651589781	1017.6622589038345	-256.44346867324793	5192.614035546551	1013.9989284032432	-250.88277595342254	5209.186283375673	1012.6034318064154	-240.616777703048	5218.730481986008	1012.4118848650327	-229.50535605911207	5128.898754130147	1016.9300683226516	-250.7309561031746	5162.777866040637	1004.0396096227103	-252.84969222795613	5185.022642767509	998.9092013000414	-247.98922802611406	5197.2271417313195	996.8285778278859	-240.30396226122576	5205.748871573245	996.047282262112	-230.34755987356925
132	1.092	5081.203	893.81699	129.612	5153.320146886217	892.7036900134019	93.11104850576905	5048.057700075131	490.0629992445549	50.046453916424994	5060.588665482622	114.7589083632226	9.842124219296194	4957.828964198756	39.49590112575707	150.2174157531912	5020.415295421438	868.5458299133386	180.17059458165048	4912.448043965928	479.70906843326367	291.64003499205756	4789.990099338601	87.592765983318	447.67506976959237	4643.630566475738	38.812662770054416	336.1783575734058	5028.81540196903	1015.1141646379413	75.85629988667016	4974.988175179936	1078.799703342871	26.27417555954542	4915.133167742408	1139.4954508982205	-28.051151015455172	4853.150040533297	1188.5811700872957	-84.44140138683765	4785.149820071027	1242.0637142843868	-141.7884694217857	4714.127942233121	1284.444474086653	-186.14455578509867	4575.3456102177715	1362.0371035790502	-197.21018077648355	4826.453888200074	1235.630604098435	-135.031109436579	4897.569555538374	1277.297949789315	-186.12170421110318	5013.9479483488785	1101.7235409593136	-250.1637499418368	5172.890680177538	1033.730299255252	-333.8646128529986	5185.477308503438	1055.681594557914	-348.98863366488547	5190.157128575821	1061.2151906379731	-374.4441055878724	5194.512178748515	1061.1708008562507	-391.9722137635548	5199.080423655087	1057.799169983171	-406.41432510535924	5191.9952885889925	1044.4063452528042	-348.80828685478565	5219.046116133802	1043.301936551703	-374.60852502194575	5230.209918920867	1038.8798373535221	-397.12615985324163	5229.953502202365	1037.3861352064177	-411.7902847661763	5224.88669840935	1036.9966847818237	-424.3762898894493	5193.670646192388	1033.6692302029335	-347.58570098123033	5220.96360020687	1026.7853588814105	-372.0878804865799	5233.269276974238	1020.5422431913986	-396.4197943805214	5233.019279936724	1018.0598312787642	-413.9966870529167	5227.504133074954	1017.3029768578074	-427.7122290534472	5194.254332667319	1026.1230394603144	-346.02105905833895	5219.485246455413	1013.4364187262518	-366.49733591467003	5230.29339123529	1006.5565670258875	-387.4223836629046	5230.096028690866	1003.398249132227	-404.226545277716	5224.931134717306	1002.3246514088293	-417.0514565101603	5193.431730163781	1017.3678587232449	-343.8050849706221	5216.378101746053	1000.3721137331518	-361.08537590526043	5225.05082971318	992.6742639185571	-377.3112957307408	5224.915564508098	989.3118180827703	-389.3118999485671	5220.345310650001	987.7514602376231	-400.5251130250264	4788.973028675145	1211.6607185650184	-110.8775068087471	4735.112436673096	1134.1774731569517	-79.69295360768838	4920.99142824844	1067.5018270445505	-163.2943027455729	5102.901534821485	1033.7538609424357	-242.81594853746543	5116.265955261393	1058.2529744402145	-250.62737717814747	5140.167614956995	1066.8190957659958	-241.83580800935812	5158.4894302012735	1069.0234101958754	-235.38860006484254	5175.197902628899	1067.6434950115836	-229.7360159049246	5123.268853127208	1047.7480719909277	-251.907980296854	5161.627841747189	1052.0230950033601	-257.11376383506956	5189.570602515767	1051.098739072147	-251.50574144217052	5203.28567041731	1051.1157598106442	-242.81306142969294	5212.170910227535	1051.528963701654	-232.1064090811526	5126.55342536423	1037.184249022538	-250.4047400081088	5165.743902732635	1035.6411129379105	-254.67183492255504	5196.545539291269	1033.2198460386223	-248.32560198433058	5213.241266564415	1032.5625155230468	-237.72937065843436	5223.035761169122	1032.6850954318816	-225.96144234185974	5127.901032018465	1029.6276744551687	-249.30249748680896	5164.210646491991	1021.7314571685963	-252.44089041306907	5191.313033814249	1018.1794981857535	-246.66996196668896	5207.553095475313	1016.7798927166225	-236.32184561208197	5216.826690978392	1016.5323694257465	-225.19673404668453	5128.296326237733	1020.6695353251145	-247.1514912835355	5161.875219862013	1007.9591078474932	-249.01645522796042	5183.818128891952	1002.90012925185	-244.00725241510318	5195.779951220989	1000.8079215737969	-236.27157554144637	5204.061752240317	999.9720975896624	-226.30850502764707
133	1.1	5081.203	893.81699	129.612	5152.537943087451	892.4440812909409	93.28182392575185	5048.137113657683	489.6109273058019	50.35256921429975	5061.07321964654	114.9723521405772	8.953603905783552	4958.978408924262	39.33468260062174	149.34812906518422	5021.162808629108	868.7940278206491	180.00843255143312	4912.650999301752	480.0233922975067	291.175109449692	4790.117436221569	87.90131150870276	446.9268782656572	4643.786305870214	39.022422522152	335.47989118552346	5029.026080485646	1015.1384804223959	75.73702376978189	4975.255115053087	1078.8827406643557	26.170140476155478	4915.44666853115	1139.654208811519	-28.117832416389742	4853.488986728915	1188.8404345966176	-84.43613878145014	4785.511211184945	1242.4163537317086	-141.71146447375693	4714.507509044048	1284.8823585015732	-185.97605288045344	4575.639984450958	1362.3262761713918	-196.87965027976966	4826.544472228934	1235.8624078291666	-134.77647390700972	4896.723538579133	1277.4592468435924	-184.68356164949915	5014.496689037081	1104.2301754325479	-247.3521901193487	5172.903905068957	1038.1501967840356	-329.330505608392	5185.663991861641	1060.5321691002653	-344.00915674708125	5190.741280126211	1066.328626412977	-369.20968226717605	5195.355188423511	1066.4408742273793	-386.58897228691	5200.123885810392	1063.17722479089	-400.931595124762	5192.107341461426	1049.217311561927	-343.87358439523484	5219.356317201476	1048.5450883273693	-369.24324743916475	5230.7981653743645	1044.3405111291627	-391.55386776367175	5230.790776607777	1042.9243379934665	-406.15014348033196	5225.981470509005	1042.5601350438296	-418.7210362374659	5193.733672811849	1038.3893423459954	-342.74851916487125	5221.193336317465	1031.877892111089	-366.8834514052474	5233.795478776567	1025.8586423055688	-391.00385093516775	5233.842596294823	1023.4632908430409	-408.50578654658705	5228.607580864735	1022.7309135816241	-422.2081478303742	5194.276164677112	1030.7686927377802	-341.2629247021518	5219.616332186806	1018.3534192036631	-361.4762405770109	5230.67554167371	1011.6543023561268	-382.232217505706	5230.760873969467	1008.572320276221	-398.9721949617334	5225.857528078553	1007.5181165668762	-411.7885597766377	5193.4121664308805	1021.909197919346	-339.1571358548797	5216.428252414349	1005.1007070625661	-356.261217140941	5225.2901131550925	997.5239475098787	-372.3767514027189	5225.355285379024	994.2057488461936	-384.34263347687204	5221.013404523542	992.6559911955368	-395.5552354865959	4789.597838022653	1212.0862861327714	-111.0190818570655	4736.5965846106965	1135.3770752431076	-80.87394768296105	4921.95290868132	1069.7525049435205	-162.0473766882283	5102.465807042932	1037.3701392388803	-239.47231247116866	5115.719024470198	1062.2291215166183	-246.87318995354093	5139.196104647065	1070.9369289508961	-237.819450170753	5157.2112856917765	1073.2228004834444	-231.20776533796334	5173.65475663013	1071.8962359228606	-225.43354632092917	5122.698598548501	1051.7186844927348	-248.1647921692171	5160.698049927284	1056.3730298138782	-252.89728616002657	5188.250885950782	1055.590884653777	-247.04649498538026	5201.683668104725	1055.613989617511	-238.27240039826302	5210.308366784222	1055.9766968670938	-227.54525119422664	5125.9592419413775	1041.089326318965	-246.73136595634048	5164.786134191894	1039.8807559960883	-250.57456617855436	5195.160119299019	1037.6046397838718	-243.97427905841585	5211.514239944105	1036.9498367897495	-233.2850336307783	5221.023150245618	1037.0148241164907	-221.4972100215415	5127.300392620551	1033.4779709988543	-245.68966960409756	5163.282291050045	1025.8375485970175	-248.4982242046456	5190.010281196646	1022.4013118339668	-242.51763415800622	5205.919957113926	1020.9984128278741	-232.08604977981474	5214.924615076961	1020.6940223896418	-220.94519519013585	5127.6886146797	1024.436252142553	-243.62889389057378	5160.966732459773	1011.9130607214778	-245.243937082228	5182.608676273029	1006.9287869335484	-240.08665632537898	5194.32895221531	1004.8254887438626	-232.29968087912408	5202.372194448903	1003.934289179663	-222.32817947895867
134	1.108	5081.203	893.81699	129.612	5151.762050618021	892.1901232300753	93.45309320638522	5048.21724880235	489.16704766916814	50.65252447946396	5061.525054889681	115.18697233622902	8.080599090853958	4960.084754834309	39.16993156530313	148.48480949144724	5021.905343515596	869.0370154526433	179.84547729138367	4912.8401793763205	480.34450529727263	290.73957849100975	4790.240656805856	88.2149778307463	446.21085724548493	4643.946706862739	39.253307031334536	334.79966567929233	5029.229967255711	1015.1609377816935	75.61956846650293	4975.511234653746	1078.9628610104762	26.070856809602162	4915.745119181649	1139.808897667598	-28.17635446481271	4853.808760986279	1189.0943333908658	-84.41901582745174	4785.849212862262	1242.762179382156	-141.61865919752913	4714.862312795473	1285.312883201058	-185.7894010018307	4575.906369194662	1362.6016299677306	-196.53750088620484	4826.615848936215	1236.09167168402	-134.50726202144622	4895.8718003474505	1277.6291971011856	-183.23213117946892	5015.060963738074	1106.756125560942	-244.56957367460495	5172.944489624324	1042.6432332978109	-324.8874121393463	5185.881236264485	1065.465429358388	-339.12468872896454	5191.353310594472	1071.5301662533257	-364.07813193650765	5196.223783707816	1071.8027787536246	-381.3148581871371	5201.190657669257	1068.6501784253044	-395.56387195325647	5192.249232607482	1054.112255058642	-339.03700138547714	5219.696362594872	1053.8860932433743	-363.990025420768	5231.413542545884	1049.905590506575	-386.10356577905196	5231.652349084192	1048.5682773141464	-400.6365833405422	5227.0974232713215	1048.2285733975143	-413.19509442203	5193.82525099485	1043.1926755865659	-338.0110984645298	5221.450934647257	1037.0667725207013	-361.7932641944498	5234.346408541849	1031.2783900633062	-385.7131616242845	5234.687140023131	1028.9716334686073	-403.1457615658315	5229.7288045833075	1028.2628796654064	-416.8379700173631	5194.325663809429	1035.4967127921961	-336.6053611734735	5219.773772141488	1023.3639079408568	-356.5694124760491	5231.081138348365	1016.8514553840557	-377.1660695707332	5231.445695270564	1013.8471973434335	-393.8473660897961	5226.800607989675	1012.8115414412732	-406.65806997866497	5193.419054852648	1026.5312496849333	-334.6102439877862	5216.502985372736	1009.9193121523117	-351.551000722239	5225.551380859034	1002.4680723328667	-367.5641359467678	5225.814328958601	999.1949792562298	-379.49939622181944	5221.6978322141085	997.654983444559	-390.7139928574838	4790.197958631602	1212.5016053035954	-111.14646654826684	4738.045699175145	1136.5439598731114	-82.04939094532509	4922.901621120754	1071.969594347045	-160.83459617032483	5102.022947055557	1040.9985909465843	-236.18729345004058	5115.1708756529115	1066.2232967371488	-243.1787854743143	5138.229167819079	1075.076350143858	-233.86136864389022	5155.941067288885	1077.4463493175845	-227.0844691560188	5172.121749388879	1076.1753567209212	-221.1882667902934	5122.125104985852	1055.7085657791577	-244.48301739158612	5159.768981111946	1060.7517921101346	-248.74588727827967	5186.935310963268	1060.1165057595156	-242.6527034935836	5200.088542710756	1060.1466684638626	-233.7956964778944	5208.455375746481	1060.458392256218	-223.04564243823748	5125.359861988911	1045.0134935257204	-243.12002139712067	5163.825974477511	1044.148716089549	-246.54323600569552	5193.775768211132	1042.0227654257064	-239.6893719614724	5209.791452525797	1041.371636950991	-228.9053372366925	5219.017642968047	1041.3784857831008	-217.09499917239756	5126.693062179217	1037.3470100446846	-242.13923785905888	5162.348431010671	1029.9704171097096	-244.6218483846674	5188.704759126709	1026.6542003257252	-238.43207444410203	5204.286958383416	1025.2490753759473	-227.91534252278274	5213.02530155402	1024.8872860065262	-216.75629777548656	5127.072456587629	1028.2208541354928	-240.16881332465658	5160.049770921584	1015.8918191462363	-241.53766649328233	5181.392496814284	1010.9855423155111	-236.23276945016687	5192.873134018175	1008.871860066866	-228.39330863372822	5200.68001744064	1007.9247723520281	-218.41123064736843
